<svg width="40" height="40" viewBox="0 0 40 40" fill="none" xmlns="http://www.w3.org/2000/svg">
<path d="M32.1346 30.3656C32.2507 30.4818 32.3428 30.6196 32.4057 30.7714C32.4686 30.9231 32.5009 31.0858 32.5009 31.25C32.5009 31.4142 32.4686 31.5769 32.4057 31.7286C32.3428 31.8804 32.2507 32.0182 32.1346 32.1344C32.0184 32.2505 31.8806 32.3426 31.7288 32.4055C31.5771 32.4683 31.4145 32.5007 31.2502 32.5007C31.086 32.5007 30.9233 32.4683 30.7716 32.4055C30.6198 32.3426 30.482 32.2505 30.3658 32.1344L20.0002 21.7672L9.63458 32.1344C9.40003 32.3689 9.08191 32.5007 8.75021 32.5007C8.4185 32.5007 8.10038 32.3689 7.86583 32.1344C7.63128 31.8998 7.49951 31.5817 7.49951 31.25C7.49951 30.9183 7.63128 30.6002 7.86583 30.3656L18.233 20L7.86583 9.63437C7.63128 9.39982 7.49951 9.0817 7.49951 8.74999C7.49951 8.41829 7.63128 8.10017 7.86583 7.86562C8.10038 7.63107 8.4185 7.4993 8.75021 7.4993C9.08191 7.4993 9.40003 7.63107 9.63458 7.86562L20.0002 18.2328L30.3658 7.86562C30.6004 7.63107 30.9185 7.4993 31.2502 7.4993C31.5819 7.4993 31.9 7.63107 32.1346 7.86562C32.3691 8.10017 32.5009 8.41829 32.5009 8.74999C32.5009 9.0817 32.3691 9.39982 32.1346 9.63437L21.7674 20L32.1346 30.3656Z" fill="#A1A1A1"/>
</svg>
